<?xml version="1.0" standalone="no"?>
<!DOCTYPE svg PUBLIC "-//W3C//DTD SVG 20010904//EN"
 "http://www.w3.org/TR/2001/REC-SVG-20010904/DTD/svg10.dtd">
<svg version="1.0" xmlns="http://www.w3.org/2000/svg"
 width="800.000000pt" height="800.000000pt" viewBox="0 0 800.000000 800.000000"
 preserveAspectRatio="xMidYMid meet">
<metadata>
Created by potrace 1.14, written by Peter Selinger 2001-2017
</metadata>
<g transform="translate(0.000000,800.000000) scale(0.100000,-0.100000)"
fill="#000000" stroke="none">
<path d="M2280 7391 c-179 -39 -304 -104 -409 -216 -105 -113 -167 -280 -190
-515 -20 -193 -21 -197 -54 -244 -18 -24 -70 -88 -115 -142 -195 -230 -343
-506 -509 -944 -30 -80 -65 -163 -78 -185 -49 -85 -225 -234 -350 -298 -68
-34 -90 -60 -90 -107 0 -49 36 -89 109 -122 66 -30 213 -32 293 -5 48 17 54
17 103 1 68 -22 171 -14 266 20 84 31 92 31 123 7 l24 -18 -37 -48 c-77 -102
-72 -147 36 -288 38 -51 92 -136 120 -191 28 -54 68 -117 89 -139 37 -38 41
-40 87 -34 l48 6 42 -62 c22 -34 44 -74 48 -90 16 -69 108 -90 159 -36 28 29
30 35 33 138 6 166 -27 266 -120 367 -48 52 -119 99 -181 120 -47 16 -87 58
-70 75 10 10 203 19 483 23 107 1 203 6 213 10 14 7 17 3 17 -17 0 -15 27 -65
65 -121 47 -69 65 -104 65 -128 1 -57 33 -109 141 -225 80 -88 111 -114 136
-119 24 -5 35 -13 39 -30 9 -36 51 -64 93 -64 49 0 86 39 96 100 4 25 14 62
21 84 24 67 18 145 -17 214 -35 71 -87 120 -179 168 -46 23 -76 49 -104 84
-36 48 -38 54 -32 101 10 72 11 74 90 126 39 26 104 79 145 118 132 126 211
244 262 396 29 84 33 110 37 236 10 301 -56 643 -183 953 -28 71 -40 112 -35
125 4 11 27 31 51 44 144 77 191 111 289 208 96 96 105 107 105 142 0 100
-140 208 -396 307 -64 25 -108 49 -143 80 -66 59 -191 119 -288 138 -100 21
-241 19 -348 -3z m360 -127 c60 -18 134 -53 165 -79 19 -16 18 -16 -18 -11
-21 3 -44 3 -50 0 -9 -3 -11 -56 -9 -202 4 -265 8 -323 19 -352 6 -14 14 -49
18 -78 4 -29 13 -56 19 -58 7 -3 33 4 58 15 l45 19 -4 -42 c-4 -35 4 -66 47
-171 157 -391 221 -856 150 -1090 -89 -289 -380 -538 -715 -611 -60 -13 -309
-21 -375 -12 -8 2 -55 -4 -104 -11 -159 -24 -258 0 -338 82 -24 24 -81 69
-128 100 -47 31 -102 69 -124 83 -21 15 -58 58 -83 95 -24 38 -48 69 -52 69
-5 0 -14 -7 -21 -15 -17 -20 31 -106 93 -167 26 -26 47 -49 47 -52 0 -2 -30
-14 -67 -27 -91 -30 -167 -30 -216 -2 l-38 23 -77 -26 c-80 -28 -192 -36 -225
-17 -14 7 0 20 80 73 108 70 255 209 295 280 15 25 54 117 87 205 78 208 135
337 221 503 90 173 157 273 292 436 60 72 118 150 129 173 14 29 25 85 34 180
8 76 22 173 30 216 57 283 206 425 508 483 88 17 231 11 307 -12z m332 -194
c119 -39 264 -111 314 -154 l39 -34 -60 -27 c-33 -15 -150 -53 -260 -84 l-200
-57 -8 40 c-5 23 -10 112 -10 200 l-2 158 47 -5 c26 -3 89 -20 140 -37z m253
-300 c-20 -32 -210 -139 -341 -193 l-60 -24 -11 46 c-8 34 -8 47 1 51 6 2 101
32 211 66 110 34 201 62 203 63 2 0 0 -4 -3 -9z m-645 -2176 c0 -9 -7 -44 -17
-78 l-16 -63 62 -82 c34 -45 95 -117 136 -160 82 -88 123 -149 64 -96 -66 60
-78 67 -95 61 -14 -5 -12 -13 15 -61 17 -30 31 -60 31 -67 0 -17 -45 28 -97
97 -39 51 -44 64 -39 94 5 30 -3 46 -60 129 l-65 94 22 57 c30 77 38 91 49 91
6 0 10 -7 10 -16z m-1008 -28 c16 -11 13 -17 -27 -56 -25 -24 -45 -52 -45 -61
0 -28 110 -189 130 -189 32 0 48 -11 43 -28 -3 -12 10 -28 41 -49 52 -37 118
-117 153 -187 29 -58 30 -59 -61 51 -79 95 -156 163 -185 163 -12 0 -21 4 -21
9 0 5 -36 58 -80 117 -44 58 -80 113 -80 121 0 14 97 123 109 123 3 0 14 -6
23 -14z m243 -407 c23 -25 50 -61 59 -80 16 -33 16 -33 -1 -9 -9 14 -49 58
-89 98 -46 46 -62 66 -43 55 17 -10 50 -39 74 -64z"/>
<path d="M2463 6929 c-22 -11 -54 -38 -69 -60 -26 -39 -27 -42 -12 -67 36 -59
132 -80 192 -42 38 23 79 91 74 123 -2 15 -18 29 -48 45 -55 27 -83 28 -137 1z
m132 -49 c8 -27 -1 -40 -30 -40 -25 0 -38 21 -29 45 9 22 51 19 59 -5z"/>
<path d="M4325 7264 c-239 -29 -386 -95 -516 -231 -152 -159 -229 -317 -229
-472 0 -47 -5 -102 -10 -121 -6 -19 -10 -80 -11 -135 0 -114 20 -203 78 -348
35 -86 56 -120 82 -128 10 -4 9 -32 -4 -119 -23 -165 -30 -402 -15 -545 15
-152 47 -275 104 -412 65 -155 111 -227 196 -315 l75 -78 -28 -56 c-30 -59
-57 -165 -57 -224 0 -19 10 -55 22 -80 18 -39 21 -61 19 -160 -2 -127 13 -200
51 -255 62 -92 203 -100 238 -15 11 26 10 39 -4 83 -22 70 -19 254 3 249 8 -2
32 -4 53 -5 33 -1 39 -5 48 -33 6 -17 22 -42 36 -55 19 -18 23 -29 19 -51 -11
-46 -8 -175 5 -212 38 -116 190 -89 190 33 0 15 7 49 16 76 l17 48 19 -37 c22
-43 74 -70 113 -60 31 8 75 58 75 86 0 45 35 151 105 313 41 94 84 205 96 247
l22 76 51 11 c28 6 80 27 116 46 62 34 67 35 175 35 288 0 565 151 728 396 57
86 63 135 22 176 -22 22 -36 26 -115 31 -149 10 -233 62 -348 217 l-58 78 9
65 c12 80 -2 109 -67 137 l-43 18 -5 89 c-3 48 -14 111 -23 138 -37 108 -211
437 -405 765 -55 93 -102 186 -109 214 -43 177 -182 357 -342 441 -106 55
-288 92 -394 79z m559 -416 c8 -13 29 -66 46 -118 17 -52 38 -109 47 -126 13
-25 15 -51 11 -130 -10 -168 -70 -300 -167 -367 -40 -28 -56 -32 -122 -35
-102 -5 -173 16 -224 65 -49 48 -87 131 -89 196 -1 48 1 52 34 73 103 66 122
95 139 204 7 41 22 92 34 114 28 51 97 104 145 111 20 3 55 12 77 20 53 18 52
18 69 -7z m-449 -178 c0 -18 -6 -26 -23 -28 -13 -2 -25 3 -28 12 -10 26 4 48
28 44 17 -2 23 -10 23 -28z m-529 -229 c67 -13 151 -53 196 -92 31 -27 5 -63
-96 -133 -50 -35 -126 -100 -169 -146 -43 -45 -80 -80 -82 -78 -12 13 -57 170
-66 230 -11 70 -6 170 9 195 4 7 26 15 47 19 22 3 42 8 44 10 7 7 67 4 117 -5z
m1264 -165 c122 -211 264 -488 285 -555 13 -40 16 -72 12 -121 -5 -58 -3 -72
18 -105 l23 -39 -22 -17 -21 -17 29 -31 c16 -17 37 -33 47 -36 10 -3 16 -12
13 -19 -5 -14 72 -131 151 -229 96 -117 220 -191 343 -204 28 -3 52 -9 52 -12
0 -18 -102 -131 -160 -178 -78 -63 -201 -126 -289 -148 -36 -9 -105 -19 -155
-22 -100 -7 -98 -9 -40 62 41 51 107 188 102 212 -2 10 -12 19 -23 21 -17 2
-27 -13 -59 -83 -106 -234 -316 -345 -601 -316 -93 9 -121 16 -182 46 -47 23
-84 50 -105 76 -32 40 -62 50 -71 25 -8 -20 26 -69 73 -107 l41 -33 -53 -19
c-87 -30 -200 -39 -281 -22 -163 34 -267 142 -373 386 -88 203 -109 341 -101
647 5 190 12 249 47 415 9 47 15 58 28 54 10 -3 55 -17 102 -32 63 -20 114
-29 196 -32 98 -5 124 -2 214 21 192 50 415 160 506 252 50 50 109 167 132
263 9 38 20 67 24 63 4 -4 48 -79 98 -166z m-946 -73 c27 -53 46 -41 -212
-139 -78 -30 -145 -54 -149 -54 -19 0 94 99 182 160 55 37 106 78 113 90 l13
21 18 -23 c10 -13 26 -37 35 -55z m781 -1858 c-11 -51 -47 -157 -78 -225 -16
-36 -47 -108 -69 -160 -35 -83 -39 -89 -34 -50 4 25 19 80 33 122 21 59 25 80
16 89 -17 17 -41 4 -55 -28 -7 -15 -35 -57 -64 -93 -28 -36 -68 -91 -89 -122
-21 -32 -40 -58 -42 -58 -7 0 59 124 123 233 68 113 74 134 47 144 -11 4 -25
-5 -46 -31 -16 -20 -43 -44 -59 -52 -16 -8 -47 -31 -69 -51 -21 -19 -39 -33
-39 -29 0 3 40 50 88 104 48 54 114 130 145 170 l58 72 70 -3 69 -2 -5 -30z
m-692 -2 l49 -6 -8 -36 c-4 -20 -10 -83 -13 -141 -6 -102 -7 -104 -19 -65 -6
22 -12 50 -12 62 0 22 -16 33 -38 25 -46 -17 -95 -211 -96 -384 -1 -138 -15
-140 -22 -3 -4 62 2 112 24 225 16 79 27 150 25 157 -7 19 -43 16 -50 -4 -4
-9 -12 -42 -19 -72 l-13 -56 3 70 c3 71 17 110 75 203 20 33 30 42 46 37 11
-3 42 -8 68 -12z m308 -70 c-22 -27 -68 -77 -102 -113 l-60 -65 6 75 c8 101
11 110 43 111 15 0 52 8 82 19 77 25 77 25 31 -27z"/>
<path d="M3954 5759 c-44 -87 -43 -199 2 -199 13 0 15 8 9 49 -5 40 -2 61 20
115 25 62 26 86 5 86 -6 0 -21 -23 -36 -51z"/>
<path d="M4020 5764 c-17 -44 -13 -84 9 -84 15 0 20 10 25 45 4 25 4 49 1 55
-11 17 -25 11 -35 -16z"/>
<path d="M4523 4243 c-7 -3 -13 -12 -13 -21 0 -15 2 -15 17 1 18 18 16 27 -4
20z"/>
<path d="M618 4276 c-96 -50 -143 -102 -153 -169 -5 -30 62 -537 228 -1737
253 -1823 245 -1776 310 -1827 14 -10 58 -27 98 -36 65 -15 330 -22 2254 -57
1199 -22 2246 -40 2326 -40 l145 0 75 36 c179 88 1687 908 1711 931 47 44 51
69 34 184 -17 113 -32 144 -87 171 -31 16 -117 19 -839 34 -443 8 -806 17
-808 19 -2 1 -25 166 -53 366 -27 200 -72 524 -99 719 -27 195 -74 535 -105
755 -30 220 -63 420 -72 444 -21 58 -73 114 -129 140 -36 17 -73 23 -173 28
l-128 6 -25 -69 -26 -69 142 -5 c147 -5 169 -12 201 -58 9 -11 42 -222 84
-523 259 -1859 391 -2823 391 -2858 0 -44 -22 -66 -102 -100 -42 -18 -95 -18
-2353 25 -2105 40 -2313 45 -2343 61 -19 9 -39 28 -47 42 -21 42 -481 3388
-469 3409 6 9 35 32 65 51 l54 33 353 -6 c193 -3 352 -3 352 1 0 3 -21 34 -47
68 l-47 62 -165 7 c-90 3 -233 6 -317 6 l-153 0 -83 -44z m6207 -2637 c369 -6
673 -14 677 -18 4 -4 12 -38 17 -76 8 -53 7 -73 -2 -82 -15 -14 -1492 -813
-1504 -813 -5 0 -15 50 -22 111 -11 93 -11 113 1 120 7 5 282 154 611 331 420
227 596 327 595 338 -4 20 -126 26 -727 34 -256 3 -496 9 -533 12 -68 6 -68 6
-68 36 l0 30 143 -6 c78 -3 444 -11 812 -17z m-107 -105 c200 -4 360 -10 355
-14 -4 -4 -55 -32 -113 -62 -58 -31 -151 -81 -207 -112 -56 -31 -105 -56 -108
-56 -3 0 -22 -11 -43 -23 -20 -13 -84 -49 -142 -79 -58 -31 -184 -99 -281
-151 -97 -53 -183 -99 -192 -103 -16 -6 -19 4 -31 101 -3 22 -12 90 -21 150
-9 61 -20 144 -25 185 -5 41 -14 99 -18 129 l-9 53 236 -6 c130 -3 399 -9 599
-12z"/>
<path d="M6715 1191 c-384 -209 -701 -384 -703 -390 -2 -6 2 -13 10 -16 18 -7
1413 747 1413 765 0 7 -4 15 -10 16 -5 2 -325 -167 -710 -375z"/>
<path d="M1957 4250 c21 -27 45 -58 53 -69 14 -18 33 -20 237 -26 l221 -7 -5
43 c-3 24 -14 56 -24 70 -18 26 -19 26 -200 32 -100 4 -213 7 -251 7 l-70 0
39 -50z"/>
<path d="M3002 4253 c14 -16 35 -47 46 -69 l21 -42 238 -6 c131 -3 330 -7 442
-8 l204 -3 13 64 c8 36 12 66 11 68 -3 2 -847 23 -961 23 l-40 0 26 -27z"/>
<path d="M663 4105 c-3 -10 0 -21 8 -26 8 -5 93 -9 190 -9 97 0 278 -3 402 -7
144 -4 227 -3 227 3 0 6 -6 17 -12 26 -11 14 -66 17 -411 23 -366 6 -398 5
-404 -10z"/>
<path d="M2052 4075 c3 -18 13 -21 108 -26 58 -4 165 -7 238 -8 l132 -1 -16
25 -16 24 -224 3 c-220 3 -225 3 -222 -17z"/>
<path d="M3080 4056 l0 -24 213 -6 c564 -15 667 -16 667 -3 -1 35 -11 36 -410
42 -217 3 -412 8 -432 10 -35 5 -38 3 -38 -19z"/>
<path d="M5062 4015 l-12 -25 76 0 c59 0 76 3 81 16 9 23 -15 34 -78 34 -50 0
-57 -3 -67 -25z"/>
<path d="M5320 3876 c0 -26 435 -3185 446 -3239 6 -30 36 -35 42 -6 3 18 -434
3188 -446 3234 -10 39 -42 47 -42 11z"/>
</g>
</svg>
